<svg width="111" height="73" viewBox="0 0 111 73" fill="none" xmlns="http://www.w3.org/2000/svg">
<path d="M88.4035 4.91903C84.3283 7.92511 78.4454 8.66945 75.8763 12.3268C77.9582 15.1826 78.4371 17.2064 78.3042 20.964C78.1713 24.7216 76.931 27.928 74.5834 30.5834C72.9002 32.4872 71.5492 34.7418 70.5304 37.3471C69.5116 39.9523 68.7697 42.52 68.3046 45.0501C67.8395 47.5802 67.3855 50.0978 66.9425 52.6029C66.4996 55.108 65.8462 57.5629 64.9825 59.9678C64.1187 62.3726 62.9781 64.4017 61.5607 66.0551C58.2828 69.7125 54.6507 71.9169 50.6641 72.6684C46.6775 73.42 42.7796 72.8939 38.9702 71.0903C35.1608 69.2866 31.5508 66.4559 28.1401 62.5981C25 58 25.283 58.5148 23.6884 54.1811C22.0938 49.8473 21.6287 45.4259 22.2931 40.9168C22.9576 36.4077 24.9065 32.3244 28.1401 28.667C29.6461 27.0137 31.4622 25.686 33.5884 24.684C35.7145 23.682 37.885 22.943 40.0997 22.467C42.3145 21.991 44.5403 21.49 46.7772 20.964C49.0141 20.4379 51.2621 19.5987 53.5211 18.4464C55.7802 17.294 57.7513 15.766 59.4345 13.8621C61.4721 11.5574 63.9305 10.1922 66.8096 9.76633C69.6888 9.34047 73.4401 10.7737 75.8763 12.3268C76.9394 10.3228 78.0274 8.44757 79.9301 5.91389C81.5516 4.08162 83.1102 2.46407 84.4834 1.61235C85.8565 0.760628 86.7867 0.259616 87.2739 0.109312C87.8498 -0.0910932 88.3924 -0.0159413 88.9018 0.334767C89.4112 0.685476 89.7545 1.18649 89.9317 1.83781C90.1974 2.94003 89.688 3.96711 88.4035 4.91903Z" fill="#375033"/>
<path d="M4.15799 41.75V36.756H6.92999C8.88799 36.756 9.76799 37.68 9.76799 39.264C9.76799 40.804 8.88799 41.75 6.92999 41.75H4.15799ZM12.342 39.264C12.342 36.778 10.56 34.71 6.92999 34.71H1.64999V50H4.15799V43.796H6.92999C10.912 43.796 12.342 41.442 12.342 39.264Z" fill="white"/>
<path d="M25.052 50H27.692L22.214 34.688H19.31L13.832 50H16.45L17.55 46.876H23.952L25.052 50ZM18.87 33.17C19.596 33.17 20.19 32.598 20.19 31.85C20.19 31.124 19.596 30.53 18.87 30.53C18.122 30.53 17.55 31.124 17.55 31.85C17.55 32.598 18.122 33.17 18.87 33.17ZM22.654 33.17C23.38 33.17 23.974 32.598 23.974 31.85C23.974 31.124 23.38 30.53 22.654 30.53C21.906 30.53 21.334 31.124 21.334 31.85C21.334 32.598 21.906 33.17 22.654 33.17ZM23.248 44.83H18.254L20.762 37.724L23.248 44.83Z" fill="white"/>
<path d="M38.1918 39.286C38.1918 40.804 37.3118 41.882 35.3538 41.882H32.5818V36.756H35.3538C37.3118 36.756 38.1918 37.746 38.1918 39.286ZM30.0738 34.71V50H32.5818V43.884H34.4958L38.0158 50H41.0078L37.2238 43.664C39.7978 43.026 40.7658 41.09 40.7658 39.286C40.7658 36.8 38.9838 34.71 35.3538 34.71H30.0738Z" fill="white"/>
<path d="M58.7582 42.322C58.7582 37.746 55.3042 34.512 50.9482 34.512C46.6362 34.512 43.1382 37.746 43.1382 42.322C43.1382 46.92 46.6362 50.154 50.9482 50.154C55.3042 50.154 58.7582 46.92 58.7582 42.322ZM45.7122 42.322C45.7122 38.868 47.9122 36.712 50.9482 36.712C53.9842 36.712 56.1842 38.868 56.1842 42.322C56.1842 45.776 53.9842 47.976 50.9482 47.976C47.9122 47.976 45.7122 45.776 45.7122 42.322Z" fill="white"/>
<path d="M71.2802 34.688V46.084L63.7342 34.688H61.2262V50H63.7342V38.582L71.2802 50H73.7882V34.688H71.2802Z" fill="white"/>
<path d="M93.1145 50H95.7545L90.2765 34.688H87.3725L81.8945 50H84.5125L85.6125 46.876H92.0145L93.1145 50ZM91.3105 44.83H86.3165L88.8245 37.724L91.3105 44.83Z" fill="white"/>
<path d="M106.76 45.622C106.76 47.096 105.726 47.954 104.032 47.954H100.644V43.18H103.944C105.616 43.18 106.76 44.104 106.76 45.622ZM106.364 38.956C106.364 40.364 105.374 41.134 103.746 41.134H100.644V36.756H103.746C105.374 36.756 106.364 37.57 106.364 38.956ZM109.268 45.886C109.268 44.06 107.948 42.432 106.32 42.146C107.794 41.618 108.916 40.496 108.916 38.648C108.916 36.492 107.2 34.71 103.966 34.71H98.1363V50H104.252C107.376 50 109.268 48.218 109.268 45.886Z" fill="white"/>
<path fill-rule="evenodd" clip-rule="evenodd" d="M0.649994 33.71H6.92999C8.93391 33.71 10.5496 34.2835 11.6745 35.319C12.8032 36.358 13.342 37.7754 13.342 39.264C13.342 40.5652 12.9137 41.9696 11.8386 43.0516C10.7546 44.1426 9.12275 44.796 6.92999 44.796H5.15799V51H0.649994V33.71ZM4.15799 50H1.64999V34.71H6.92999C10.56 34.71 12.342 36.778 12.342 39.264C12.342 41.442 10.912 43.796 6.92999 43.796H4.15799V50ZM5.15799 37.756V40.75H6.92999C7.76246 40.75 8.18974 40.5484 8.40496 40.3497C8.60686 40.1633 8.76799 39.8447 8.76799 39.264C8.76799 38.6542 8.60285 38.3335 8.40496 38.1508C8.19276 37.9549 7.76834 37.756 6.92999 37.756H5.15799ZM24.3439 51L23.2439 47.876H18.258L17.158 51H12.4121L18.4465 34.133C17.3549 33.9391 16.55 33.0053 16.55 31.85C16.55 30.5826 17.5588 29.53 18.87 29.53C19.6477 29.53 20.3378 29.9156 20.7591 30.5054C21.1742 29.9175 21.8584 29.53 22.654 29.53C23.9323 29.53 24.974 30.5717 24.974 31.85C24.974 33.0119 24.1473 33.9365 23.0771 34.1318L29.0738 50.8938V33.71H35.3538C37.3605 33.71 38.9767 34.2907 40.1007 35.3322C41.2276 36.3764 41.7658 37.7981 41.7658 39.286C41.7658 40.3616 41.4775 41.5083 40.7738 42.4935C40.2752 43.1916 39.5885 43.7792 38.7066 44.1965L42.7698 51H37.4376L33.9176 44.884H33.5818V51H24.3439ZM34.4958 43.884L38.0158 50H41.0078L37.2238 43.664C37.5757 43.5768 37.8976 43.4653 38.191 43.3332C40.0444 42.4991 40.7658 40.8434 40.7658 39.286C40.7658 36.8 38.9838 34.71 35.3538 34.71H30.0738V50H32.5818V43.884H34.4958ZM21.2226 33.688C21.0452 33.5507 20.889 33.3879 20.7591 33.2046C20.6275 33.3881 20.4698 33.5509 20.2917 33.688H21.2226ZM17.55 46.876H23.952L25.052 50H27.692L22.214 34.688H19.31L13.832 50H16.45L17.55 46.876ZM23.248 44.83L20.762 37.724L18.254 44.83H23.248ZM21.8387 43.83L20.7578 40.7404L19.6674 43.83H21.8387ZM36.8042 40.4419C37.0301 40.2187 37.1918 39.8551 37.1918 39.286C37.1918 38.7043 37.0298 38.3687 36.8196 38.1697C36.6013 37.963 36.1751 37.756 35.3538 37.756H33.5818V40.882H35.3538C36.1529 40.882 36.5785 40.665 36.8042 40.4419ZM50.9482 33.512C55.8378 33.512 59.7582 37.1752 59.7582 42.322C59.7582 47.4889 55.8397 51.154 50.9482 51.154C46.1044 51.154 42.1382 47.4926 42.1382 42.322C42.1382 37.1716 46.1063 33.512 50.9482 33.512ZM47.914 38.9133C47.19 39.6694 46.7122 40.8103 46.7122 42.322C46.7122 43.8343 47.1905 44.9885 47.9179 45.7567C48.6424 46.522 49.6806 46.976 50.9482 46.976C52.2158 46.976 53.254 46.522 53.9785 45.7567C54.7059 44.9885 55.1842 43.8343 55.1842 42.322C55.1842 40.8103 54.7064 39.6694 53.9824 38.9133C53.2604 38.1593 52.2219 37.712 50.9482 37.712C49.6745 37.712 48.636 38.1593 47.914 38.9133ZM70.2802 33.688H74.7882V51H70.7424L64.7342 41.9088V51H60.2262V33.688H64.2714L70.2802 42.7625V33.688ZM71.2802 46.084L63.7342 34.688H61.2262V50H63.7342V38.582L71.2802 50H73.7882V34.688H71.2802V46.084ZM92.4064 51L91.3064 47.876H86.3205L85.2205 51H80.4746L86.6682 33.688H90.9808L97.1363 50.8938V33.71H103.966C105.763 33.71 107.251 34.2065 108.305 35.1116C109.369 36.0245 109.916 37.2906 109.916 38.648C109.916 39.7887 109.565 40.7551 108.95 41.519C108.792 41.7149 108.62 41.8941 108.436 42.0575C109.55 42.9547 110.268 44.3802 110.268 45.886C110.268 47.3395 109.671 48.6478 108.581 49.5781C107.501 50.5 106.001 51 104.252 51H92.4064ZM107.579 42.6673C107.198 42.407 106.771 42.2251 106.32 42.146C106.768 41.9856 107.183 41.7704 107.545 41.4966C108.372 40.8693 108.916 39.9346 108.916 38.648C108.916 36.492 107.2 34.71 103.966 34.71H98.1363V50H104.252C107.376 50 109.268 48.218 109.268 45.886C109.268 44.5652 108.578 43.348 107.579 42.6673ZM85.6125 46.876H92.0145L93.1145 50H95.7545L90.2765 34.688H87.3725L81.8945 50H84.5125L85.6125 46.876ZM91.3105 44.83L88.8245 37.724L86.3165 44.83H91.3105ZM89.9012 43.83L88.8203 40.7404L87.7299 43.83H89.9012ZM105.385 46.578C105.6 46.3956 105.76 46.1085 105.76 45.622C105.76 45.1341 105.587 44.8105 105.332 44.5937C105.059 44.3618 104.604 44.18 103.944 44.18H101.644V46.954H104.032C104.722 46.954 105.148 46.7791 105.385 46.578ZM105.033 39.7986C105.218 39.6474 105.364 39.406 105.364 38.956C105.364 38.5196 105.219 38.2664 105.025 38.1037C104.806 37.9214 104.406 37.756 103.746 37.756H101.644V40.134H103.746C104.418 40.134 104.819 39.9737 105.033 39.7986ZM4.15799 41.75H6.92999C8.88799 41.75 9.76799 40.804 9.76799 39.264C9.76799 37.68 8.88799 36.756 6.92999 36.756H4.15799V41.75ZM20.19 31.85C20.19 32.598 19.596 33.17 18.87 33.17C18.122 33.17 17.55 32.598 17.55 31.85C17.55 31.124 18.122 30.53 18.87 30.53C19.596 30.53 20.19 31.124 20.19 31.85ZM23.974 31.85C23.974 32.598 23.38 33.17 22.654 33.17C21.906 33.17 21.334 32.598 21.334 31.85C21.334 31.124 21.906 30.53 22.654 30.53C23.38 30.53 23.974 31.124 23.974 31.85ZM35.3538 41.882C37.3118 41.882 38.1918 40.804 38.1918 39.286C38.1918 37.746 37.3118 36.756 35.3538 36.756H32.5818V41.882H35.3538ZM50.9482 34.512C55.3042 34.512 58.7582 37.746 58.7582 42.322C58.7582 46.92 55.3042 50.154 50.9482 50.154C46.6362 50.154 43.1382 46.92 43.1382 42.322C43.1382 37.746 46.6362 34.512 50.9482 34.512ZM50.9482 36.712C47.9122 36.712 45.7122 38.868 45.7122 42.322C45.7122 45.776 47.9122 47.976 50.9482 47.976C53.9842 47.976 56.1842 45.776 56.1842 42.322C56.1842 38.868 53.9842 36.712 50.9482 36.712ZM104.032 47.954C105.726 47.954 106.76 47.096 106.76 45.622C106.76 44.104 105.616 43.18 103.944 43.18H100.644V47.954H104.032ZM103.746 41.134C105.374 41.134 106.364 40.364 106.364 38.956C106.364 37.57 105.374 36.756 103.746 36.756H100.644V41.134H103.746Z" fill="#375033"/>
</svg>
