<svg width="94" height="62" viewBox="0 0 94 62" fill="none" xmlns="http://www.w3.org/2000/svg">
<path d="M27.6445 15.4721C27.0187 15.4721 26.4065 15.1607 26.0481 14.5922C25.5495 13.8013 25.1263 13.0745 24.7529 12.4332C23.1573 9.69307 22.4291 8.44229 19.0409 7.28876C18.0554 6.9532 17.5285 5.88237 17.8641 4.89691C18.1996 3.91133 19.2703 3.38445 20.2559 3.72012C24.978 5.32788 26.2501 7.51254 28.0108 10.5362C28.386 11.1807 28.774 11.847 29.2372 12.5818C29.7924 13.4625 29.5286 14.6264 28.6478 15.1815C28.3477 15.3715 27.9997 15.4722 27.6445 15.4721Z" fill="#75432E"/>
<path d="M73.7173 25.2379C64.5844 16.105 48.5551 17.6878 41.9168 11.0497C35.2786 4.41156 30.5512 6.46083 26.217 10.7951C21.8828 15.1295 18.6758 21.0145 25.3139 27.6527C31.952 34.291 31.5269 49.1625 40.6598 58.2954C46.9865 64.6222 59.5156 62.3509 68.6442 53.2224C77.7727 44.0939 80.0442 31.5647 73.7173 25.2379Z" fill="#ACE075"/>
<path d="M27.9918 25.9015C27.2859 25.9015 26.5867 25.5913 26.1128 24.996C24.5948 23.0886 23.707 20.6473 23.6131 18.1218C23.5638 16.7975 24.5973 15.6841 25.9216 15.6348C27.2463 15.5862 28.3594 16.619 28.4086 17.9433C28.4648 19.4525 28.983 20.8959 29.8677 22.0076C30.6928 23.0445 30.5212 24.5539 29.4844 25.3792C29.0607 25.7177 28.5342 25.9019 27.9918 25.9015Z" fill="#C6ED98"/>
<path d="M25.3746 9.94603L25.3871 9.87168C25.3954 9.82275 25.4067 9.7484 25.4265 9.65964C25.4626 9.47643 25.5263 9.22479 25.617 8.91988C25.6618 8.7667 25.7195 8.60976 25.7777 8.43187C25.8424 8.26416 25.9115 8.08155 25.9888 7.89203C26.1592 7.48956 26.3533 7.09757 26.5703 6.71815C26.8103 6.29825 27.0779 5.89476 27.3714 5.51036C27.6753 5.11305 28.0135 4.72301 28.387 4.35707C28.7661 3.98506 29.1712 3.64068 29.5994 3.32656C30.0317 3.00687 30.4954 2.72109 30.9702 2.45347C31.9206 1.91921 32.9312 1.48182 33.9406 1.17097C34.4462 1.01694 34.9484 0.889546 35.4398 0.793156C35.9309 0.696281 36.4102 0.628952 36.8655 0.587175C37.3216 0.54673 37.7498 0.525902 38.1461 0.534378L38.4308 0.535831L38.703 0.548909L38.9545 0.561988L39.1893 0.582937C39.4859 0.608245 39.73 0.645906 39.898 0.674241C39.981 0.686835 40.0495 0.704152 40.0933 0.712144L40.1609 0.72607C40.2318 0.740621 40.2991 0.769 40.3591 0.809587C40.419 0.850173 40.4704 0.902172 40.5103 0.962614C40.5501 1.02306 40.5777 1.09076 40.5914 1.16185C40.605 1.23294 40.6046 1.30603 40.59 1.37695C40.5883 1.38555 40.5858 1.39584 40.5837 1.40419L40.5664 1.47092C40.5543 1.51378 40.5396 1.58281 40.5145 1.66297C40.4472 1.89155 40.3705 2.11726 40.2846 2.33952L40.2001 2.55955L40.1012 2.79108L39.9931 3.04126L39.8693 3.2975C39.7024 3.65714 39.4953 4.03241 39.2582 4.42415C39.008 4.83437 38.7368 5.23143 38.4458 5.61378C38.1431 6.01266 37.8076 6.40743 37.4468 6.79371C36.7235 7.56339 35.8859 8.27845 34.9879 8.89663C34.5385 9.20518 34.078 9.49568 33.6006 9.74332C33.1301 9.98957 32.6425 10.2018 32.1417 10.3785C31.6487 10.5528 31.1496 10.6849 30.6591 10.7828C30.1848 10.8771 29.7047 10.9399 29.2221 10.9706C28.7859 10.9984 28.3484 11.0003 27.912 10.9762C27.7077 10.9622 27.5133 10.944 27.3344 10.9281C27.149 10.9022 26.9827 10.8849 26.8254 10.8576C26.5118 10.8049 26.2578 10.7514 26.0773 10.7031C25.9889 10.6819 25.9172 10.6594 25.8695 10.6453L25.7972 10.6238C25.6562 10.5819 25.5353 10.4898 25.4575 10.365C25.3796 10.2401 25.3501 10.0911 25.3746 9.94603Z" fill="#16992B"/>
<path d="M1.353 25.9H6.699C8.503 25.9 9.856 26.384 10.758 27.352C11.66 28.32 12.111 29.739 12.111 31.609V33.886C12.111 35.756 11.66 37.175 10.758 38.143C9.856 39.111 8.503 39.595 6.699 39.595H4.983V49H1.353V25.9ZM6.699 36.295C7.293 36.295 7.733 36.13 8.019 35.8C8.327 35.47 8.481 34.909 8.481 34.117V31.378C8.481 30.586 8.327 30.025 8.019 29.695C7.733 29.365 7.293 29.2 6.699 29.2H4.983V36.295H6.699ZM15.1663 25.9H20.0833L23.8453 49H20.2153L19.5553 44.413V44.479H15.4303L14.7703 49H11.4043L15.1663 25.9ZM19.1263 41.344L17.5093 29.926H17.4433L15.8593 41.344H19.1263ZM13.4833 20.983H16.7173V24.349H13.4833V20.983ZM18.5653 20.983H21.7993V24.349H18.5653V20.983ZM25.0455 25.9H30.4245C32.2945 25.9 33.6585 26.34 34.5165 27.22C35.3745 28.078 35.8035 29.409 35.8035 31.213V32.632C35.8035 35.03 35.0115 36.548 33.4275 37.186V37.252C34.3075 37.516 34.9235 38.055 35.2755 38.869C35.6495 39.683 35.8365 40.772 35.8365 42.136V46.195C35.8365 46.855 35.8585 47.394 35.9025 47.812C35.9465 48.208 36.0565 48.604 36.2325 49H32.5365C32.4045 48.626 32.3165 48.274 32.2725 47.944C32.2285 47.614 32.2065 47.02 32.2065 46.162V41.938C32.2065 40.882 32.0305 40.145 31.6785 39.727C31.3485 39.309 30.7655 39.1 29.9295 39.1H28.6755V49H25.0455V25.9ZM29.9955 35.8C30.7215 35.8 31.2605 35.613 31.6125 35.239C31.9865 34.865 32.1735 34.238 32.1735 33.358V31.576C32.1735 30.74 32.0195 30.135 31.7115 29.761C31.4255 29.387 30.9635 29.2 30.3255 29.2H28.6755V35.8H29.9955ZM43.041 49.33C41.259 49.33 39.895 48.824 38.949 47.812C38.003 46.8 37.53 45.37 37.53 43.522V31.378C37.53 29.53 38.003 28.1 38.949 27.088C39.895 26.076 41.259 25.57 43.041 25.57C44.823 25.57 46.187 26.076 47.133 27.088C48.079 28.1 48.552 29.53 48.552 31.378V43.522C48.552 45.37 48.079 46.8 47.133 47.812C46.187 48.824 44.823 49.33 43.041 49.33ZM43.041 46.03C44.295 46.03 44.922 45.271 44.922 43.753V31.147C44.922 29.629 44.295 28.87 43.041 28.87C41.787 28.87 41.16 29.629 41.16 31.147V43.753C41.16 45.271 41.787 46.03 43.041 46.03ZM50.4459 25.9H54.9999L58.5309 39.727H58.5969V25.9H61.8309V49H58.1019L53.7459 32.137H53.6799V49H50.4459V25.9ZM71.4971 25.9H76.4141L80.1761 49H76.5461L75.8861 44.413V44.479H71.7611L71.1011 49H67.7351L71.4971 25.9ZM75.4571 41.344L73.8401 29.926H73.7741L72.1901 41.344H75.4571ZM81.3762 25.9H86.8542C88.7242 25.9 90.0882 26.34 90.9462 27.22C91.8042 28.078 92.2332 29.409 92.2332 31.213V32.137C92.2332 33.325 92.0352 34.293 91.6392 35.041C91.2652 35.789 90.6822 36.328 89.8902 36.658V36.724C91.6942 37.34 92.5962 38.946 92.5962 41.542V43.522C92.5962 45.304 92.1232 46.668 91.1772 47.614C90.2532 48.538 88.8892 49 87.0852 49H81.3762V25.9ZM86.4252 35.305C87.1512 35.305 87.6902 35.118 88.0422 34.744C88.4162 34.37 88.6032 33.743 88.6032 32.863V31.576C88.6032 30.74 88.4492 30.135 88.1412 29.761C87.8552 29.387 87.3932 29.2 86.7552 29.2H85.0062V35.305H86.4252ZM87.0852 45.7C87.7232 45.7 88.1962 45.535 88.5042 45.205C88.8122 44.853 88.9662 44.259 88.9662 43.423V41.41C88.9662 40.354 88.7792 39.628 88.4052 39.232C88.0532 38.814 87.4592 38.605 86.6232 38.605H85.0062V45.7H87.0852Z" fill="white"/>
<path d="M1.353 25.9V24.9H0.353V25.9H1.353ZM10.758 27.352L10.0264 28.0337L10.0264 28.0337L10.758 27.352ZM10.758 38.143L10.0264 37.4613L10.758 38.143ZM4.983 39.595V38.595H3.983V39.595H4.983ZM4.983 49V50H5.983V49H4.983ZM1.353 49H0.353V50H1.353V49ZM8.019 35.8L7.28794 35.1177L7.27538 35.1311L7.26331 35.1451L8.019 35.8ZM8.019 29.695L7.26331 30.3499L7.27538 30.3639L7.28795 30.3773L8.019 29.695ZM4.983 29.2V28.2H3.983V29.2H4.983ZM4.983 36.295H3.983V37.295H4.983V36.295ZM1.353 26.9H6.699V24.9H1.353V26.9ZM6.699 26.9C8.33005 26.9 9.37463 27.3343 10.0264 28.0337L11.4896 26.6703C10.3374 25.4337 8.67595 24.9 6.699 24.9V26.9ZM10.0264 28.0337C10.6958 28.7521 11.111 29.8874 11.111 31.609H13.111C13.111 29.5906 12.6242 27.8879 11.4896 26.6703L10.0264 28.0337ZM11.111 31.609V33.886H13.111V31.609H11.111ZM11.111 33.886C11.111 35.6076 10.6958 36.7429 10.0264 37.4613L11.4896 38.8247C12.6242 37.6071 13.111 35.9044 13.111 33.886H11.111ZM10.0264 37.4613C9.37463 38.1607 8.33005 38.595 6.699 38.595V40.595C8.67595 40.595 10.3374 40.0613 11.4896 38.8247L10.0264 37.4613ZM6.699 38.595H4.983V40.595H6.699V38.595ZM3.983 39.595V49H5.983V39.595H3.983ZM4.983 48H1.353V50H4.983V48ZM2.353 49V25.9H0.353V49H2.353ZM6.699 37.295C7.47334 37.295 8.23709 37.0752 8.77469 36.4549L7.26331 35.1451C7.22891 35.1848 7.11266 35.295 6.699 35.295V37.295ZM8.75006 36.4823C9.32152 35.87 9.481 34.9874 9.481 34.117H7.481C7.481 34.8306 7.33248 35.07 7.28794 35.1177L8.75006 36.4823ZM9.481 34.117V31.378H7.481V34.117H9.481ZM9.481 31.378C9.481 30.5076 9.32152 29.625 8.75006 29.0127L7.28795 30.3773C7.33248 30.425 7.481 30.6644 7.481 31.378H9.481ZM8.77469 29.0401C8.23709 28.4198 7.47334 28.2 6.699 28.2V30.2C7.11266 30.2 7.22891 30.3102 7.26331 30.3499L8.77469 29.0401ZM6.699 28.2H4.983V30.2H6.699V28.2ZM3.983 29.2V36.295H5.983V29.2H3.983ZM4.983 37.295H6.699V35.295H4.983V37.295ZM15.1663 25.9V24.9H14.316L14.1793 25.7393L15.1663 25.9ZM20.0833 25.9L21.0703 25.7393L20.9337 24.9H20.0833V25.9ZM23.8453 49V50H25.0214L24.8323 48.8393L23.8453 49ZM20.2153 49L19.2255 49.1424L19.3489 50H20.2153V49ZM19.5553 44.413L20.5451 44.2706L18.5553 44.413H19.5553ZM19.5553 44.479V45.479H20.5553V44.479H19.5553ZM15.4303 44.479V43.479H14.5657L14.4408 44.3345L15.4303 44.479ZM14.7703 49V50H15.635L15.7598 49.1445L14.7703 49ZM11.4043 49L10.4173 48.8393L10.2283 50H11.4043V49ZM19.1263 41.344V42.344H20.2779L20.1165 41.2038L19.1263 41.344ZM17.5093 29.926L18.4995 29.7858L18.3777 28.926H17.5093V29.926ZM17.4433 29.926V28.926H16.5725L16.4528 29.7886L17.4433 29.926ZM15.8593 41.344L14.8688 41.2066L14.711 42.344H15.8593V41.344ZM13.4833 20.983V19.983H12.4833V20.983H13.4833ZM16.7173 20.983H17.7173V19.983H16.7173V20.983ZM16.7173 24.349V25.349H17.7173V24.349H16.7173ZM13.4833 24.349H12.4833V25.349H13.4833V24.349ZM18.5653 20.983V19.983H17.5653V20.983H18.5653ZM21.7993 20.983H22.7993V19.983H21.7993V20.983ZM21.7993 24.349V25.349H22.7993V24.349H21.7993ZM18.5653 24.349H17.5653V25.349H18.5653V24.349ZM15.1663 26.9H20.0833V24.9H15.1663V26.9ZM19.0963 26.0607L22.8583 49.1607L24.8323 48.8393L21.0703 25.7393L19.0963 26.0607ZM23.8453 48H20.2153V50H23.8453V48ZM21.2051 48.8576L20.5451 44.2706L18.5655 44.5554L19.2255 49.1424L21.2051 48.8576ZM18.5553 44.413V44.479H20.5553V44.413H18.5553ZM19.5553 43.479H15.4303V45.479H19.5553V43.479ZM14.4408 44.3345L13.7808 48.8555L15.7598 49.1445L16.4198 44.6235L14.4408 44.3345ZM14.7703 48H11.4043V50H14.7703V48ZM12.3913 49.1607L16.1533 26.0607L14.1793 25.7393L10.4173 48.8393L12.3913 49.1607ZM20.1165 41.2038L18.4995 29.7858L16.5192 30.0662L18.1362 41.4842L20.1165 41.2038ZM17.5093 28.926H17.4433V30.926H17.5093V28.926ZM16.4528 29.7886L14.8688 41.2066L16.8498 41.4814L18.4338 30.0634L16.4528 29.7886ZM15.8593 42.344H19.1263V40.344H15.8593V42.344ZM13.4833 21.983H16.7173V19.983H13.4833V21.983ZM15.7173 20.983V24.349H17.7173V20.983H15.7173ZM16.7173 23.349H13.4833V25.349H16.7173V23.349ZM14.4833 24.349V20.983H12.4833V24.349H14.4833ZM18.5653 21.983H21.7993V19.983H18.5653V21.983ZM20.7993 20.983V24.349H22.7993V20.983H20.7993ZM21.7993 23.349H18.5653V25.349H21.7993V23.349ZM19.5653 24.349V20.983H17.5653V24.349H19.5653ZM25.0455 25.9V24.9H24.0455V25.9H25.0455ZM34.5165 27.22L33.8004 27.9182L33.8093 27.9271L34.5165 27.22ZM33.4275 37.186L33.0538 36.2584L32.4275 36.5107V37.186H33.4275ZM33.4275 37.252H32.4275V37.996L33.1401 38.2098L33.4275 37.252ZM35.2755 38.869L34.3576 39.2659L34.3621 39.2763L34.3668 39.2865L35.2755 38.869ZM35.9025 47.812L34.9079 47.9167L34.9086 47.9224L35.9025 47.812ZM36.2325 49V50H37.7712L37.1463 48.5939L36.2325 49ZM32.5365 49L31.5935 49.3328L31.8289 50H32.5365V49ZM31.6785 39.727L30.8936 40.3466L30.9034 40.359L30.9135 40.3711L31.6785 39.727ZM28.6755 39.1V38.1H27.6755V39.1H28.6755ZM28.6755 49V50H29.6755V49H28.6755ZM25.0455 49H24.0455V50H25.0455V49ZM31.6125 35.239L30.9053 34.5319L30.8946 34.5426L30.8843 34.5536L31.6125 35.239ZM31.7115 29.761L30.9171 30.3685L30.9281 30.3828L30.9395 30.3967L31.7115 29.761ZM28.6755 29.2V28.2H27.6755V29.2H28.6755ZM28.6755 35.8H27.6755V36.8H28.6755V35.8ZM25.0455 26.9H30.4245V24.9H25.0455V26.9ZM30.4245 26.9C32.1635 26.9 33.2094 27.3119 33.8005 27.9181L35.2325 26.5219C34.1075 25.3681 32.4254 24.9 30.4245 24.9V26.9ZM33.8093 27.9271C34.4054 28.5232 34.8035 29.5462 34.8035 31.213H36.8035C36.8035 29.2718 36.3435 27.6328 35.2236 26.5129L33.8093 27.9271ZM34.8035 31.213V32.632H36.8035V31.213H34.8035ZM34.8035 32.632C34.8035 33.7307 34.6206 34.5358 34.3229 35.1064C34.0367 35.6549 33.6243 36.0287 33.0538 36.2584L33.8011 38.1136C34.8146 37.7053 35.5902 37.0011 36.096 36.0316C36.5903 35.0842 36.8035 33.9313 36.8035 32.632H34.8035ZM32.4275 37.186V37.252H34.4275V37.186H32.4275ZM33.1401 38.2098C33.7492 38.3925 34.1275 38.7337 34.3576 39.2659L36.1933 38.4721C35.7194 37.3762 34.8657 36.6395 33.7148 36.2942L33.1401 38.2098ZM34.3668 39.2865C34.6575 39.9192 34.8365 40.8479 34.8365 42.136H36.8365C36.8365 40.6961 36.6414 39.4468 36.1841 38.4515L34.3668 39.2865ZM34.8365 42.136V46.195H36.8365V42.136H34.8365ZM34.8365 46.195C34.8365 46.8727 34.8588 47.4502 34.9079 47.9167L36.897 47.7073C36.8581 47.3378 36.8365 46.8373 36.8365 46.195H34.8365ZM34.9086 47.9224C34.9649 48.4291 35.1046 48.9245 35.3186 49.4061L37.1463 48.5939C37.0083 48.2835 36.928 47.9869 36.8963 47.7016L34.9086 47.9224ZM36.2325 48H32.5365V50H36.2325V48ZM33.4794 48.6672C33.3662 48.3463 33.297 48.062 33.2637 47.8118L31.2812 48.0762C31.3359 48.486 31.4427 48.9057 31.5935 49.3328L33.4794 48.6672ZM33.2637 47.8118C33.2295 47.5559 33.2065 47.0235 33.2065 46.162H31.2065C31.2065 47.0165 31.2274 47.6721 31.2812 48.0762L33.2637 47.8118ZM33.2065 46.162V41.938H31.2065V46.162H33.2065ZM33.2065 41.938C33.2065 40.8358 33.0359 39.7865 32.4434 39.0829L30.9135 40.3711C31.025 40.5035 31.2065 40.9282 31.2065 41.938H33.2065ZM32.4633 39.1074C31.8565 38.3386 30.8957 38.1 29.9295 38.1V40.1C30.6352 40.1 30.8405 40.2794 30.8936 40.3466L32.4633 39.1074ZM29.9295 38.1H28.6755V40.1H29.9295V38.1ZM27.6755 39.1V49H29.6755V39.1H27.6755ZM28.6755 48H25.0455V50H28.6755V48ZM26.0455 49V25.9H24.0455V49H26.0455ZM29.9955 36.8C30.8808 36.8 31.7325 36.5706 32.3407 35.9244L30.8843 34.5536C30.7884 34.6554 30.5621 34.8 29.9955 34.8V36.8ZM32.3196 35.9461C32.9729 35.2928 33.1735 34.3366 33.1735 33.358H31.1735C31.1735 34.1394 31.0001 34.4372 30.9053 34.5319L32.3196 35.9461ZM33.1735 33.358V31.576H31.1735V33.358H33.1735ZM33.1735 31.576C33.1735 30.6606 33.0131 29.7685 32.4834 29.1253L30.9395 30.3967C31.0258 30.5015 31.1735 30.8194 31.1735 31.576H33.1735ZM32.5058 29.1536C31.9685 28.451 31.1561 28.2 30.3255 28.2V30.2C30.7708 30.2 30.8824 30.323 30.9171 30.3685L32.5058 29.1536ZM30.3255 28.2H28.6755V30.2H30.3255V28.2ZM27.6755 29.2V35.8H29.6755V29.2H27.6755ZM28.6755 36.8H29.9955V34.8H28.6755V36.8ZM38.949 47.812L39.6796 47.1291L38.949 47.812ZM38.949 27.088L39.6796 27.7709L38.949 27.088ZM47.133 27.088L46.4025 27.7709L47.133 27.088ZM47.133 47.812L46.4025 47.1291L47.133 47.812ZM43.041 48.33C41.4521 48.33 40.3859 47.8848 39.6796 47.1291L38.2185 48.4949C39.4041 49.7632 41.066 50.33 43.041 50.33V48.33ZM39.6796 47.1291C38.9579 46.3572 38.53 45.203 38.53 43.522H36.53C36.53 45.537 37.0481 47.2428 38.2185 48.4949L39.6796 47.1291ZM38.53 43.522V31.378H36.53V43.522H38.53ZM38.53 31.378C38.53 29.697 38.9579 28.5428 39.6796 27.7709L38.2185 26.4051C37.0481 27.6572 36.53 29.363 36.53 31.378H38.53ZM39.6796 27.7709C40.3859 27.0152 41.4521 26.57 43.041 26.57V24.57C41.066 24.57 39.4041 25.1368 38.2185 26.4051L39.6796 27.7709ZM43.041 26.57C44.63 26.57 45.6961 27.0152 46.4025 27.7709L47.8636 26.4051C46.6779 25.1368 45.0161 24.57 43.041 24.57V26.57ZM46.4025 27.7709C47.1241 28.5428 47.552 29.697 47.552 31.378H49.552C49.552 29.363 49.0339 27.6572 47.8636 26.4051L46.4025 27.7709ZM47.552 31.378V43.522H49.552V31.378H47.552ZM47.552 43.522C47.552 45.203 47.1241 46.3572 46.4025 47.1291L47.8636 48.4949C49.0339 47.2428 49.552 45.537 49.552 43.522H47.552ZM46.4025 47.1291C45.6961 47.8848 44.63 48.33 43.041 48.33V50.33C45.0161 50.33 46.6779 49.7632 47.8636 48.4949L46.4025 47.1291ZM43.041 47.03C43.8778 47.03 44.6693 46.7676 45.2227 46.0976C45.7459 45.4643 45.922 44.6246 45.922 43.753H43.922C43.922 44.3994 43.7846 44.6982 43.6808 44.8239C43.6072 44.9129 43.4582 45.03 43.041 45.03V47.03ZM45.922 43.753V31.147H43.922V43.753H45.922ZM45.922 31.147C45.922 30.2754 45.7459 29.4357 45.2227 28.8024C44.6693 28.1324 43.8778 27.87 43.041 27.87V29.87C43.4582 29.87 43.6072 29.9871 43.6808 30.0761C43.7846 30.2018 43.922 30.5006 43.922 31.147H45.922ZM43.041 27.87C42.2042 27.87 41.4127 28.1324 40.8593 28.8024C40.3361 29.4357 40.16 30.2754 40.16 31.147H42.16C42.16 30.5006 42.2974 30.2018 42.4012 30.0761C42.4748 29.9871 42.6238 29.87 43.041 29.87V27.87ZM40.16 31.147V43.753H42.16V31.147H40.16ZM40.16 43.753C40.16 44.6246 40.3361 45.4643 40.8593 46.0976C41.4127 46.7676 42.2042 47.03 43.041 47.03V45.03C42.6238 45.03 42.4748 44.9129 42.4012 44.8239C42.2974 44.6982 42.16 44.3994 42.16 43.753H40.16ZM50.4459 25.9V24.9H49.4459V25.9H50.4459ZM54.9999 25.9L55.9688 25.6526L55.7766 24.9H54.9999V25.9ZM58.5309 39.727L57.562 39.9744L57.7542 40.727H58.5309V39.727ZM58.5969 39.727V40.727H59.5969V39.727H58.5969ZM58.5969 25.9V24.9H57.5969V25.9H58.5969ZM61.8309 25.9H62.8309V24.9H61.8309V25.9ZM61.8309 49V50H62.8309V49H61.8309ZM58.1019 49L57.1337 49.2501L57.3274 50H58.1019V49ZM53.7459 32.137L54.7141 31.8869L54.5204 31.137H53.7459V32.137ZM53.6799 32.137V31.137H52.6799V32.137H53.6799ZM53.6799 49V50H54.6799V49H53.6799ZM50.4459 49H49.4459V50H50.4459V49ZM50.4459 26.9H54.9999V24.9H50.4459V26.9ZM54.031 26.1474L57.562 39.9744L59.4998 39.4796L55.9688 25.6526L54.031 26.1474ZM58.5309 40.727H58.5969V38.727H58.5309V40.727ZM59.5969 39.727V25.9H57.5969V39.727H59.5969ZM58.5969 26.9H61.8309V24.9H58.5969V26.9ZM60.8309 25.9V49H62.8309V25.9H60.8309ZM61.8309 48H58.1019V50H61.8309V48ZM59.0701 48.7499L54.7141 31.8869L52.7777 32.3871L57.1337 49.2501L59.0701 48.7499ZM53.7459 31.137H53.6799V33.137H53.7459V31.137ZM52.6799 32.137V49H54.6799V32.137H52.6799ZM53.6799 48H50.4459V50H53.6799V48ZM51.4459 49V25.9H49.4459V49H51.4459ZM71.4971 25.9V24.9H70.6468L70.5101 25.7393L71.4971 25.9ZM76.4141 25.9L77.4011 25.7393L77.2644 24.9H76.4141V25.9ZM80.1761 49V50H81.3521L81.1631 48.8393L80.1761 49ZM76.5461 49L75.5563 49.1424L75.6797 50H76.5461V49ZM75.8861 44.413L76.8759 44.2706L74.8861 44.413H75.8861ZM75.8861 44.479V45.479H76.8861V44.479H75.8861ZM71.7611 44.479V43.479H70.8965L70.7716 44.3345L71.7611 44.479ZM71.1011 49V50H71.9657L72.0906 49.1445L71.1011 49ZM67.7351 49L66.7481 48.8393L66.5591 50H67.7351V49ZM75.4571 41.344V42.344H76.6087L76.4472 41.2038L75.4571 41.344ZM73.8401 29.926L74.8302 29.7858L74.7084 28.926H73.8401V29.926ZM73.7741 29.926V28.926H72.9032L72.7836 29.7886L73.7741 29.926ZM72.1901 41.344L71.1996 41.2066L71.0418 42.344H72.1901V41.344ZM71.4971 26.9H76.4141V24.9H71.4971V26.9ZM75.4271 26.0607L79.1891 49.1607L81.1631 48.8393L77.4011 25.7393L75.4271 26.0607ZM80.1761 48H76.5461V50H80.1761V48ZM77.5359 48.8576L76.8759 44.2706L74.8963 44.5554L75.5563 49.1424L77.5359 48.8576ZM74.8861 44.413V44.479H76.8861V44.413H74.8861ZM75.8861 43.479H71.7611V45.479H75.8861V43.479ZM70.7716 44.3345L70.1116 48.8555L72.0906 49.1445L72.7506 44.6235L70.7716 44.3345ZM71.1011 48H67.7351V50H71.1011V48ZM68.7221 49.1607L72.4841 26.0607L70.5101 25.7393L66.7481 48.8393L68.7221 49.1607ZM76.4472 41.2038L74.8302 29.7858L72.85 30.0662L74.467 41.4842L76.4472 41.2038ZM73.8401 28.926H73.7741V30.926H73.8401V28.926ZM72.7836 29.7886L71.1996 41.2066L73.1806 41.4814L74.7646 30.0634L72.7836 29.7886ZM72.1901 42.344H75.4571V40.344H72.1901V42.344ZM81.3762 25.9V24.9H80.3762V25.9H81.3762ZM90.9462 27.22L90.2301 27.9182L90.2391 27.9271L90.9462 27.22ZM91.6392 35.041L90.7554 34.5731L90.75 34.5834L90.7448 34.5938L91.6392 35.041ZM89.8902 36.658L89.5056 35.7349L88.8902 35.9913V36.658H89.8902ZM89.8902 36.724H88.8902V37.4392L89.567 37.6703L89.8902 36.724ZM91.1772 47.614L91.8843 48.3211L91.1772 47.614ZM81.3762 49H80.3762V50H81.3762V49ZM88.0422 34.744L87.3351 34.0369L87.3244 34.0476L87.314 34.0586L88.0422 34.744ZM88.1412 29.761L87.3468 30.3684L87.3578 30.3828L87.3693 30.3967L88.1412 29.761ZM85.0062 29.2V28.2H84.0062V29.2H85.0062ZM85.0062 35.305H84.0062V36.305H85.0062V35.305ZM88.5042 45.205L89.2353 45.8873L89.2462 45.8756L89.2568 45.8635L88.5042 45.205ZM88.4052 39.232L87.6403 39.8761L87.6586 39.8979L87.6782 39.9186L88.4052 39.232ZM85.0062 38.605V37.605H84.0062V38.605H85.0062ZM85.0062 45.7H84.0062V46.7H85.0062V45.7ZM81.3762 26.9H86.8542V24.9H81.3762V26.9ZM86.8542 26.9C88.5933 26.9 89.6391 27.3119 90.2302 27.9181L91.6622 26.5219C90.5373 25.3681 88.8551 24.9 86.8542 24.9V26.9ZM90.2391 27.9271C90.8351 28.5232 91.2332 29.5462 91.2332 31.213H93.2332C93.2332 29.2718 92.7732 27.6328 91.6533 26.5129L90.2391 27.9271ZM91.2332 31.213V32.137H93.2332V31.213H91.2332ZM91.2332 32.137C91.2332 33.224 91.0506 34.0156 90.7554 34.5731L92.523 35.5089C93.0198 34.5704 93.2332 33.426 93.2332 32.137H91.2332ZM90.7448 34.5938C90.4811 35.1211 90.0823 35.4946 89.5056 35.7349L90.2748 37.5811C91.282 37.1614 92.0493 36.4569 92.5336 35.4882L90.7448 34.5938ZM88.8902 36.658V36.724H90.8902V36.658H88.8902ZM89.567 37.6703C90.2451 37.9019 90.7218 38.2998 91.0478 38.8802C91.3874 39.4848 91.5962 40.3491 91.5962 41.542H93.5962C93.5962 40.1389 93.354 38.9022 92.7916 37.9008C92.2155 36.8752 91.3393 36.1621 90.2133 35.7776L89.567 37.6703ZM91.5962 41.542V43.522H93.5962V41.542H91.5962ZM91.5962 43.522C91.5962 45.1298 91.1728 46.2042 90.4701 46.9069L91.8843 48.3211C93.0736 47.1318 93.5962 45.4782 93.5962 43.522H91.5962ZM90.4701 46.9069C89.7957 47.5813 88.7269 48 87.0852 48V50C89.0514 50 90.7107 49.4947 91.8843 48.3211L90.4701 46.9069ZM87.0852 48H81.3762V50H87.0852V48ZM82.3762 49V25.9H80.3762V49H82.3762ZM86.4252 36.305C87.3105 36.305 88.1622 36.0756 88.7704 35.4294L87.314 34.0586C87.2182 34.1604 86.9919 34.305 86.4252 34.305V36.305ZM88.7493 35.4511C89.4026 34.7978 89.6032 33.8416 89.6032 32.863H87.6032C87.6032 33.6444 87.4298 33.9422 87.3351 34.0369L88.7493 35.4511ZM89.6032 32.863V31.576H87.6032V32.863H89.6032ZM89.6032 31.576C89.6032 30.6606 89.4428 29.7685 88.9131 29.1253L87.3693 30.3967C87.4556 30.5015 87.6032 30.8194 87.6032 31.576H89.6032ZM88.9356 29.1536C88.3983 28.451 87.5858 28.2 86.7552 28.2V30.2C87.2005 30.2 87.3121 30.323 87.3468 30.3684L88.9356 29.1536ZM86.7552 28.2H85.0062V30.2H86.7552V28.2ZM84.0062 29.2V35.305H86.0062V29.2H84.0062ZM85.0062 36.305H86.4252V34.305H85.0062V36.305ZM87.0852 46.7C87.8832 46.7 88.6708 46.4921 89.2353 45.8873L87.7731 44.5227C87.7216 44.5779 87.5631 44.7 87.0852 44.7V46.7ZM89.2568 45.8635C89.8093 45.232 89.9662 44.3297 89.9662 43.423H87.9662C87.9662 44.1883 87.8151 44.474 87.7516 44.5465L89.2568 45.8635ZM89.9662 43.423V41.41H87.9662V43.423H89.9662ZM89.9662 41.41C89.9662 40.3082 89.7859 39.2375 89.1322 38.5454L87.6782 39.9186C87.7725 40.0185 87.9662 40.3998 87.9662 41.41H89.9662ZM89.1701 38.5879C88.5458 37.8465 87.5967 37.605 86.6232 37.605V39.605C87.3217 39.605 87.5605 39.7815 87.6403 39.8761L89.1701 38.5879ZM86.6232 37.605H85.0062V39.605H86.6232V37.605ZM84.0062 38.605V45.7H86.0062V38.605H84.0062ZM85.0062 46.7H87.0852V44.7H85.0062V46.7Z" fill="#16992B"/>
</svg>
