<svg width="118" height="50" viewBox="0 0 118 50" fill="none" xmlns="http://www.w3.org/2000/svg">
<path d="M45.8965 3.3692C43.0799 5.42816 39.0137 5.93798 37.238 8.44305C38.677 10.3991 39.008 11.7852 38.9161 14.3589C38.8243 16.9326 37.967 19.1288 36.3444 20.9475C35.181 22.2515 34.2472 23.7958 33.5431 25.5802C32.8389 27.3646 32.3261 29.1233 32.0046 30.8563C31.6832 32.5892 31.3694 34.3136 31.0632 36.0294C30.7571 37.7452 30.3055 39.4267 29.7085 41.0738C29.1115 42.721 28.3231 44.1108 27.3434 45.2432C25.0778 47.7483 22.5674 49.2582 19.8119 49.7729C17.0565 50.2877 14.3624 49.9273 11.7294 48.692C9.09646 47.4566 6.60128 45.5177 4.24387 42.8754C2.07353 39.726 2.26916 40.0787 1.167 37.1103C0.0648332 34.142 -0.256631 31.1136 0.202604 28.0252C0.661839 24.9368 2.00893 22.14 4.24388 19.635C5.28481 18.5025 6.54005 17.5932 8.0096 16.9068C9.47916 16.2205 10.9793 15.7144 12.5101 15.3884C14.0409 15.0624 15.5793 14.7192 17.1254 14.3589C18.6715 13.9986 20.2253 13.4238 21.7867 12.6345C23.3481 11.8452 24.7105 10.7986 25.8739 9.49459C27.2822 7.91606 28.9814 6.98095 30.9714 6.68927C32.9614 6.39758 35.5542 7.37925 37.238 8.44305C37.9728 7.07041 38.7248 5.78601 40.0399 4.05061C41.1607 2.79563 42.2379 1.68772 43.187 1.10435C44.1361 0.520978 44.779 0.177819 45.1158 0.0748711C45.5138 -0.0623926 45.8889 -0.0109187 46.2409 0.229293C46.593 0.469504 46.8303 0.812664 46.9528 1.25877C47.1365 2.01372 46.7844 2.7172 45.8965 3.3692Z" fill="#375033"/>
<path d="M11.508 30.22V25.226H14.28C16.238 25.226 17.118 26.15 17.118 27.734C17.118 29.274 16.238 30.22 14.28 30.22H11.508ZM19.692 27.734C19.692 25.248 17.91 23.18 14.28 23.18H9V38.47H11.508V32.266H14.28C18.262 32.266 19.692 29.912 19.692 27.734Z" fill="white"/>
<path d="M32.402 38.47H35.042L29.564 23.158H26.66L21.182 38.47H23.8L24.9 35.346H31.302L32.402 38.47ZM26.22 21.64C26.946 21.64 27.54 21.068 27.54 20.32C27.54 19.594 26.946 19 26.22 19C25.472 19 24.9 19.594 24.9 20.32C24.9 21.068 25.472 21.64 26.22 21.64ZM30.004 21.64C30.73 21.64 31.324 21.068 31.324 20.32C31.324 19.594 30.73 19 30.004 19C29.256 19 28.684 19.594 28.684 20.32C28.684 21.068 29.256 21.64 30.004 21.64ZM30.598 33.3H25.604L28.112 26.194L30.598 33.3Z" fill="white"/>
<path d="M45.5418 27.756C45.5418 29.274 44.6618 30.352 42.7038 30.352H39.9318V25.226H42.7038C44.6618 25.226 45.5418 26.216 45.5418 27.756ZM37.4238 23.18V38.47H39.9318V32.354H41.8458L45.3658 38.47H48.3578L44.5738 32.134C47.1478 31.496 48.1158 29.56 48.1158 27.756C48.1158 25.27 46.3338 23.18 42.7038 23.18H37.4238Z" fill="white"/>
<path d="M66.1082 30.792C66.1082 26.216 62.6542 22.982 58.2982 22.982C53.9862 22.982 50.4882 26.216 50.4882 30.792C50.4882 35.39 53.9862 38.624 58.2982 38.624C62.6542 38.624 66.1082 35.39 66.1082 30.792ZM53.0622 30.792C53.0622 27.338 55.2622 25.182 58.2982 25.182C61.3342 25.182 63.5342 27.338 63.5342 30.792C63.5342 34.246 61.3342 36.446 58.2982 36.446C55.2622 36.446 53.0622 34.246 53.0622 30.792Z" fill="white"/>
<path d="M78.6302 23.158V34.554L71.0842 23.158H68.5762V38.47H71.0842V27.052L78.6302 38.47H81.1382V23.158H78.6302Z" fill="white"/>
<path d="M100.464 38.47H103.104L97.6265 23.158H94.7225L89.2445 38.47H91.8625L92.9625 35.346H99.3645L100.464 38.47ZM98.6605 33.3H93.6665L96.1745 26.194L98.6605 33.3Z" fill="white"/>
<path d="M114.11 34.092C114.11 35.566 113.076 36.424 111.382 36.424H107.994V31.65H111.294C112.966 31.65 114.11 32.574 114.11 34.092ZM113.714 27.426C113.714 28.834 112.724 29.604 111.096 29.604H107.994V25.226H111.096C112.724 25.226 113.714 26.04 113.714 27.426ZM116.618 34.356C116.618 32.53 115.298 30.902 113.67 30.616C115.144 30.088 116.266 28.966 116.266 27.118C116.266 24.962 114.55 23.18 111.316 23.18H105.486V38.47H111.602C114.726 38.47 116.618 36.688 116.618 34.356Z" fill="white"/>
<path fill-rule="evenodd" clip-rule="evenodd" d="M8 22.18H14.28C16.2839 22.18 17.8996 22.7535 19.0245 23.789C20.1532 24.828 20.692 26.2454 20.692 27.734C20.692 29.0352 20.2637 30.4396 19.1886 31.5216C18.1046 32.6126 16.4728 33.266 14.28 33.266H12.508V39.47H8V22.18ZM11.508 38.47H9V23.18H14.28C17.91 23.18 19.692 25.248 19.692 27.734C19.692 29.912 18.262 32.266 14.28 32.266H11.508V38.47ZM12.508 26.226V29.22H14.28C15.1125 29.22 15.5397 29.0184 15.755 28.8197C15.9569 28.6333 16.118 28.3147 16.118 27.734C16.118 27.1242 15.9529 26.8035 15.755 26.6208C15.5428 26.4249 15.1184 26.226 14.28 26.226H12.508ZM31.6939 39.47L30.5939 36.346H25.6081L24.5081 39.47H19.7622L25.7965 22.603C24.705 22.4091 23.9 21.4753 23.9 20.32C23.9 19.0526 24.9088 18 26.22 18C26.9977 18 27.6878 18.3856 28.1091 18.9754C28.5242 18.3875 29.2084 18 30.004 18C31.2823 18 32.324 19.0417 32.324 20.32C32.324 21.4819 31.4973 22.4065 30.4271 22.6018L36.4238 39.3638V22.18H42.7038C44.7105 22.18 46.3267 22.7607 47.4508 23.8022C48.5776 24.8464 49.1158 26.2681 49.1158 27.756C49.1158 28.8316 48.8275 29.9783 48.1238 30.9635C47.6252 31.6616 46.9385 32.2492 46.0566 32.6665L50.1198 39.47H44.7876L41.2676 33.354H40.9318V39.47H31.6939ZM41.8458 32.354L45.3658 38.47H48.3578L44.5738 32.134C44.9257 32.0468 45.2476 31.9353 45.541 31.8032C47.3944 30.9691 48.1158 29.3134 48.1158 27.756C48.1158 25.27 46.3338 23.18 42.7038 23.18H37.4238V38.47H39.9318V32.354H41.8458ZM28.5726 22.158C28.3952 22.0207 28.239 21.8579 28.1091 21.6746C27.9775 21.8581 27.8198 22.0209 27.6418 22.158H28.5726ZM24.9 35.346H31.302L32.402 38.47H35.042L29.564 23.158H26.66L21.182 38.47H23.8L24.9 35.346ZM30.598 33.3L28.112 26.194L25.604 33.3H30.598ZM29.1887 32.3L28.1078 29.2104L27.0174 32.3H29.1887ZM44.1542 28.9119C44.3801 28.6887 44.5418 28.3251 44.5418 27.756C44.5418 27.1743 44.3798 26.8387 44.1696 26.6397C43.9513 26.433 43.5251 26.226 42.7038 26.226H40.9318V29.352H42.7038C43.5029 29.352 43.9285 29.135 44.1542 28.9119ZM58.2982 21.982C63.1878 21.982 67.1082 25.6452 67.1082 30.792C67.1082 35.9589 63.1897 39.624 58.2982 39.624C53.4544 39.624 49.4882 35.9626 49.4882 30.792C49.4882 25.6416 53.4563 21.982 58.2982 21.982ZM55.264 27.3833C54.5401 28.1394 54.0622 29.2803 54.0622 30.792C54.0622 32.3043 54.5405 33.4585 55.2679 34.2267C55.9924 34.992 57.0306 35.446 58.2982 35.446C59.5658 35.446 60.604 34.992 61.3286 34.2267C62.0559 33.4585 62.5342 32.3043 62.5342 30.792C62.5342 29.2803 62.0564 28.1394 61.3324 27.3833C60.6104 26.6293 59.572 26.182 58.2982 26.182C57.0245 26.182 55.986 26.6293 55.264 27.3833ZM77.6302 22.158H82.1382V39.47H78.0924L72.0842 30.3788V39.47H67.5762V22.158H71.6214L77.6302 31.2325V22.158ZM78.6302 34.554L71.0842 23.158H68.5762V38.47H71.0842V27.052L78.6302 38.47H81.1382V23.158H78.6302V34.554ZM99.7564 39.47L98.6564 36.346H93.6705L92.5705 39.47H87.8247L94.0182 22.158H98.3308L104.486 39.3638V22.18H111.316C113.113 22.18 114.601 22.6765 115.655 23.5816C116.719 24.4945 117.266 25.7606 117.266 27.118C117.266 28.2587 116.915 29.2251 116.3 29.989C116.142 30.1849 115.97 30.3641 115.786 30.5275C116.9 31.4247 117.618 32.8502 117.618 34.356C117.618 35.8095 117.021 37.1178 115.931 38.0481C114.851 38.97 113.351 39.47 111.602 39.47H99.7564ZM114.929 31.1373C114.548 30.877 114.121 30.6951 113.67 30.616C114.118 30.4556 114.533 30.2404 114.895 29.9666C115.722 29.3393 116.266 28.4046 116.266 27.118C116.266 24.962 114.55 23.18 111.316 23.18H105.486V38.47H111.602C114.726 38.47 116.618 36.688 116.618 34.356C116.618 33.0352 115.928 31.818 114.929 31.1373ZM92.9625 35.346H99.3645L100.464 38.47H103.104L97.6265 23.158H94.7225L89.2445 38.47H91.8625L92.9625 35.346ZM98.6605 33.3L96.1745 26.194L93.6665 33.3H98.6605ZM97.2512 32.3L96.1703 29.2104L95.0799 32.3H97.2512ZM112.735 35.048C112.95 34.8656 113.11 34.5785 113.11 34.092C113.11 33.6041 112.937 33.2805 112.682 33.0637C112.409 32.8318 111.954 32.65 111.294 32.65H108.994V35.424H111.382C112.072 35.424 112.498 35.2491 112.735 35.048ZM112.383 28.2686C112.568 28.1174 112.714 27.876 112.714 27.426C112.714 26.9896 112.569 26.7364 112.375 26.5737C112.156 26.3914 111.756 26.226 111.096 26.226H108.994V28.604H111.096C111.768 28.604 112.169 28.4437 112.383 28.2686ZM11.508 30.22H14.28C16.238 30.22 17.118 29.274 17.118 27.734C17.118 26.15 16.238 25.226 14.28 25.226H11.508V30.22ZM27.54 20.32C27.54 21.068 26.946 21.64 26.22 21.64C25.472 21.64 24.9 21.068 24.9 20.32C24.9 19.594 25.472 19 26.22 19C26.946 19 27.54 19.594 27.54 20.32ZM31.324 20.32C31.324 21.068 30.73 21.64 30.004 21.64C29.256 21.64 28.684 21.068 28.684 20.32C28.684 19.594 29.256 19 30.004 19C30.73 19 31.324 19.594 31.324 20.32ZM42.7038 30.352C44.6618 30.352 45.5418 29.274 45.5418 27.756C45.5418 26.216 44.6618 25.226 42.7038 25.226H39.9318V30.352H42.7038ZM58.2982 22.982C62.6542 22.982 66.1082 26.216 66.1082 30.792C66.1082 35.39 62.6542 38.624 58.2982 38.624C53.9862 38.624 50.4882 35.39 50.4882 30.792C50.4882 26.216 53.9862 22.982 58.2982 22.982ZM58.2982 25.182C55.2622 25.182 53.0622 27.338 53.0622 30.792C53.0622 34.246 55.2622 36.446 58.2982 36.446C61.3342 36.446 63.5342 34.246 63.5342 30.792C63.5342 27.338 61.3342 25.182 58.2982 25.182ZM111.382 36.424C113.076 36.424 114.11 35.566 114.11 34.092C114.11 32.574 112.966 31.65 111.294 31.65H107.994V36.424H111.382ZM111.096 29.604C112.724 29.604 113.714 28.834 113.714 27.426C113.714 26.04 112.724 25.226 111.096 25.226H107.994V29.604H111.096Z" fill="#375033"/>
</svg>
